# xmcd
#
# Track frame offsets: 
#        150
#        18879
#        41539
#        67787
#        92835
#        118592
#        162884
#        207989
#
# Disc length: 3055 seconds
#
# Revision: 0
# Processed by: cddbd v1.5.2PL0 Copyright (c) Steve Scherf et al.
# Submitted via: ExactAudioCopy v1.0b3
#
DISCID=5d0bed08
DTITLE=Daniel Gray - Oh Jerusalem
DYEAR=2013
DGENRE=Contemporary Christian
TTITLE0=Where Would We Be
TTITLE1=Mystic
TTITLE2=Am Undone
TTITLE3=Lament
TTITLE4=Smooth Talkin' Woman
TTITLE5=Mirage
TTITLE6=Oh Jerusalem
TTITLE7=The Day We've Waited For
EXTD=
EXTT0=
EXTT1=
EXTT2=
EXTT3=
EXTT4=
EXTT5=
EXTT6=
EXTT7=
PLAYORDER=
